<?xml version="1.0" encoding="UTF-8" standalone="no"?>
<svg
   xmlns:dc="http://purl.org/dc/elements/1.1/"
   xmlns:cc="http://creativecommons.org/ns#"
   xmlns:rdf="http://www.w3.org/1999/02/22-rdf-syntax-ns#"
   xmlns:svg="http://www.w3.org/2000/svg"
   xmlns="http://www.w3.org/2000/svg"
   xmlns:sodipodi="http://sodipodi.sourceforge.net/DTD/sodipodi-0.dtd"
   xmlns:inkscape="http://www.inkscape.org/namespaces/inkscape"
   height="512"
   width="512"
   inkscape:version="1.0 (4035a4fb49, 2020-05-01)"
   sodipodi:docname="software.svg"
   xml:space="preserve"
   viewBox="0 0 512 512"
   y="0px"
   x="0px"
   id="Capa_1"
   version="1.1"><metadata
   id="metadata39"><rdf:RDF><cc:Work
       rdf:about=""><dc:format>image/svg+xml</dc:format><dc:type
         rdf:resource="http://purl.org/dc/dcmitype/StillImage" /><dc:title></dc:title></cc:Work></rdf:RDF></metadata><defs
   id="defs37" /><sodipodi:namedview
   inkscape:current-layer="Capa_1"
   inkscape:window-maximized="1"
   inkscape:window-y="-8"
   inkscape:window-x="-8"
   inkscape:cy="334.55162"
   inkscape:cx="258.24416"
   inkscape:zoom="1.2041667"
   showgrid="false"
   id="namedview35"
   inkscape:window-height="745"
   inkscape:window-width="1366"
   inkscape:pageshadow="2"
   inkscape:pageopacity="0"
   guidetolerance="10"
   gridtolerance="10"
   objecttolerance="10"
   borderopacity="1"
   bordercolor="#666666"
   pagecolor="#ffffff" />
<path
   style="stroke-width:8.08931"
   id="path2"
   d="M 500.54563,78.908509 V 14.481972 H 435.54175 V 38.641923 H 289.283 V 14.481972 H 224.2791 V 38.641923 H 78.020352 V 14.481972 H 13.016462 V 78.908509 H 37.392921 V 223.86822 H 13.016462 v 64.42654 h 24.376459 v 144.9597 H 13.016462 V 497.681 h 65.00389 V 473.52104 H 224.2791 V 497.681 H 289.283 V 473.52104 H 435.54175 V 497.681 h 65.00388 v -64.42654 h -24.37646 v -144.9597 h 24.37646 V 223.86822 H 476.16917 V 78.908509 Z M 459.91821,223.86822 h -24.37646 v 64.42654 h 24.37646 v 144.9597 h -24.37646 v 24.15996 H 289.283 v -24.15996 h -65.0039 v 24.15996 H 78.020352 V 433.25446 H 53.643893 V 288.29476 H 78.020352 V 223.86822 H 53.643893 V 78.908509 H 78.020352 V 54.748559 H 224.2791 v 24.15995 h 65.0039 v -24.15995 h 146.25875 v 24.15995 h 24.37646 z" />
<g
   transform="matrix(8.1254862,0,0,8.0533171,13.016462,14.481972)"
   id="g4">
</g>
<g
   transform="matrix(8.1254862,0,0,8.0533171,13.016462,14.481972)"
   id="g6">
</g>
<g
   transform="matrix(8.1254862,0,0,8.0533171,13.016462,14.481972)"
   id="g8">
</g>
<g
   transform="matrix(8.1254862,0,0,8.0533171,13.016462,14.481972)"
   id="g10">
</g>
<g
   transform="matrix(8.1254862,0,0,8.0533171,13.016462,14.481972)"
   id="g12">
</g>
<g
   transform="matrix(8.1254862,0,0,8.0533171,13.016462,14.481972)"
   id="g14">
</g>
<g
   transform="matrix(8.1254862,0,0,8.0533171,13.016462,14.481972)"
   id="g16">
</g>
<g
   transform="matrix(8.1254862,0,0,8.0533171,13.016462,14.481972)"
   id="g18">
</g>
<g
   transform="matrix(8.1254862,0,0,8.0533171,13.016462,14.481972)"
   id="g20">
</g>
<g
   transform="matrix(8.1254862,0,0,8.0533171,13.016462,14.481972)"
   id="g22">
</g>
<g
   transform="matrix(8.1254862,0,0,8.0533171,13.016462,14.481972)"
   id="g24">
</g>
<g
   transform="matrix(8.1254862,0,0,8.0533171,13.016462,14.481972)"
   id="g26">
</g>
<g
   transform="matrix(8.1254862,0,0,8.0533171,13.016462,14.481972)"
   id="g28">
</g>
<g
   transform="matrix(8.1254862,0,0,8.0533171,13.016462,14.481972)"
   id="g30">
</g>
<g
   transform="matrix(8.1254862,0,0,8.0533171,13.016462,14.481972)"
   id="g32">
</g>
</svg>
