<?xml version="1.0" encoding="UTF-8" standalone="no"?>
<svg
   xmlns:dc="http://purl.org/dc/elements/1.1/"
   xmlns:cc="http://creativecommons.org/ns#"
   xmlns:rdf="http://www.w3.org/1999/02/22-rdf-syntax-ns#"
   xmlns:svg="http://www.w3.org/2000/svg"
   xmlns="http://www.w3.org/2000/svg"
   xmlns:sodipodi="http://sodipodi.sourceforge.net/DTD/sodipodi-0.dtd"
   xmlns:inkscape="http://www.inkscape.org/namespaces/inkscape"
   inkscape:version="1.0 (4035a4fb49, 2020-05-01)"
   sodipodi:docname="maintenance.svg"
   version="1.1"
   width="512"
   viewBox="0 0 512 512"
   height="512"
   enable-background="new 0 0 512 512"
   id="Capa_1">
  <metadata
     id="metadata27">
    <rdf:RDF>
      <cc:Work
         rdf:about="">
        <dc:format>image/svg+xml</dc:format>
        <dc:type
           rdf:resource="http://purl.org/dc/dcmitype/StillImage" />
        <dc:title></dc:title>
      </cc:Work>
    </rdf:RDF>
  </metadata>
  <defs
     id="defs25" />
  <sodipodi:namedview
     inkscape:current-layer="Capa_1"
     inkscape:window-maximized="1"
     inkscape:window-y="-8"
     inkscape:window-x="-8"
     inkscape:cy="326.86505"
     inkscape:cx="256"
     inkscape:zoom="1.1289062"
     showgrid="false"
     id="namedview23"
     inkscape:window-height="745"
     inkscape:window-width="1366"
     inkscape:pageshadow="2"
     inkscape:pageopacity="0"
     guidetolerance="10"
     gridtolerance="10"
     objecttolerance="10"
     borderopacity="1"
     bordercolor="#666666"
     pagecolor="#ffffff" />
  <g
     transform="matrix(0.93338133,0,0,0.97103061,18.602076,8.5123376)"
     id="g20">
    <path
       id="path2"
       d="m 45.997,69.191 c 0,7.727 6.264,13.991 13.991,13.991 7.727,0 13.991,-6.264 13.991,-13.991 0,-7.727 -6.264,-13.991 -13.992,-13.991 -7.727,0 -13.99,6.264 -13.99,13.991 z" />
    <circle
       id="circle4"
       r="13.991"
       cy="69.191002"
       cx="103.027" />
    <circle
       id="circle6"
       r="13.991"
       cy="69.191002"
       cx="146.067" />
    <path
       id="path8"
       d="m 130.805,275.375 c 2.989,0 5.816,-1.795 6.988,-4.742 l 41.818,-105.14 c 1.535,-3.859 -0.349,-8.23 -4.208,-9.765 -3.856,-1.532 -8.229,0.349 -9.764,4.208 l -41.818,105.14 c -1.535,3.859 0.349,8.23 4.208,9.765 0.911,0.362 1.851,0.534 2.776,0.534 z" />
    <path
       id="path10"
       d="m 212.373,269.319 c 1.186,0.687 2.482,1.014 3.761,1.014 2.594,0 5.119,-1.345 6.513,-3.751 l 28.081,-48.48 c 1.373,-2.372 1.348,-5.303 -0.068,-7.65 l -28.081,-46.578 c -2.143,-3.557 -6.766,-4.7 -10.32,-2.557 -3.557,2.144 -4.701,6.765 -2.557,10.32 l 25.786,42.773 -25.854,44.635 c -2.081,3.593 -0.855,8.193 2.739,10.274 z" />
    <path
       id="path12"
       d="M 94.575,259.045 68.721,214.41 94.507,171.637 c 2.144,-3.556 1,-8.176 -2.557,-10.32 -3.553,-2.142 -8.176,-0.999 -10.32,2.557 l -28.081,46.578 c -1.416,2.347 -1.441,5.278 -0.068,7.65 l 28.081,48.48 c 1.394,2.407 3.919,3.751 6.513,3.751 1.279,0 2.576,-0.327 3.761,-1.014 3.595,-2.081 4.82,-6.681 2.739,-10.274 z" />
    <path
       id="path14"
       d="m 377.032,368.721 c -4.066,-0.832 -8.04,1.789 -8.873,5.858 -2.799,13.675 -14.982,23.601 -28.968,23.601 -16.303,0 -29.567,-13.264 -29.567,-29.568 0,-16.304 13.264,-29.568 29.567,-29.568 7.231,0 14.192,2.638 19.599,7.428 3.108,2.753 7.861,2.466 10.613,-0.642 2.754,-3.108 2.467,-7.859 -0.641,-10.613 -8.159,-7.229 -18.661,-11.21 -29.57,-11.21 -24.595,0 -44.604,20.01 -44.604,44.605 0,24.595 20.009,44.604 44.604,44.604 21.096,0 39.475,-14.981 43.699,-35.622 0.832,-4.068 -1.792,-8.041 -5.859,-8.873 z" />
    <path
       id="path16"
       d="m 455.049,172.682 c -13.65,-5.577 -29.294,0.993 -34.869,14.644 -2.701,6.612 -2.666,13.881 0.101,20.467 2.766,6.586 6.682,10.542 14.543,14.402 11.364,5.58 29.636,-0.706 34.868,-14.643 4.591,-12.228 -0.688,-29.66 -14.643,-34.87 z m -10.113,36.502 c -6.476,0 -11.726,-5.25 -11.726,-11.726 0,-6.476 5.25,-11.726 11.726,-11.726 6.476,0 11.726,5.25 11.726,11.726 0,6.476 -5.25,11.726 -11.726,11.726 z" />
    <path
       id="path18"
       d="m 505.005,201.207 -4.518,-1.846 c 0.051,-1.463 0.043,-2.927 -0.023,-4.389 l 4.499,-1.89 c 5.72,-2.401 8.419,-9.008 6.018,-14.729 l -6.176,-14.706 c -2.3,-4.784 -7.468,-8.406 -14.729,-6.018 l -4.5,1.889 c -0.999,-1.07 -2.038,-2.101 -3.119,-3.09 l 1.844,-4.514 c 1.751,-4.023 0.387,-12.136 -6.16,-14.672 l -14.766,-6.032 c -4.021,-1.75 -12.137,-0.384 -14.671,6.161 l -1.845,4.517 c -1.462,-0.051 -2.927,-0.043 -4.389,0.023 l -1.889,-4.498 c -1.164,-2.772 -3.336,-4.924 -6.119,-6.061 -1.996,-0.815 -4.134,-1.028 -6.207,-0.658 V 57.345 c 0,-21.341 -17.363,-38.704 -38.704,-38.704 h -15.759 c -4.153,0 -7.518,3.366 -7.518,7.518 0,4.152 3.366,7.518 7.518,7.518 h 15.759 c 13.05,0 23.667,10.617 23.667,23.667 v 47.36 H 15.037 v -12.72 -34.64 c 0,-13.05 10.617,-23.667 23.667,-23.667 h 300.111 c 4.153,0 7.518,-3.366 7.518,-7.518 0,-4.152 -3.366,-7.518 -7.518,-7.518 H 38.704 C 17.363,18.642 0,36.004 0,57.345 v 315.878 c 0,21.341 17.363,38.704 38.704,38.704 h 28.26 c 4.153,0 7.518,-3.366 7.518,-7.518 0,-4.152 -3.366,-7.518 -7.518,-7.518 h -28.26 c -13.05,0 -23.667,-10.617 -23.667,-23.667 V 119.741 h 398.182 v 16.957 l -2.076,0.872 c -5.718,2.402 -8.417,9.01 -6.016,14.729 l 1.889,4.5 c -1.07,0.999 -2.101,2.039 -3.089,3.118 l -4.517,-1.845 c -5.739,-2.347 -12.323,0.415 -14.671,6.161 l -6.03,14.764 c -1.752,4.023 -0.386,12.137 6.161,14.671 l 4.516,1.845 c -0.05,1.463 -0.043,2.928 0.023,4.39 l -4.499,1.89 c -4.783,2.301 -8.405,7.47 -6.017,14.73 l 6.175,14.704 c 2.302,4.785 7.467,8.407 14.73,6.019 l 4.5,-1.89 c 0.999,1.071 2.038,2.101 3.118,3.09 l -1.845,4.518 c -2.346,5.743 0.419,12.323 6.161,14.669 l 1.487,0.607 v 8.8 c -2.152,-1.191 -4.579,-1.831 -7.106,-1.831 -3.931,0 -7.629,1.532 -10.409,4.312 l -10.191,10.191 c -5.2,-2.715 -10.625,-4.963 -16.216,-6.721 v -14.409 c 0,-8.116 -6.603,-14.719 -14.719,-14.719 h -30.771 c -8.116,0 -14.72,6.603 -14.72,14.719 v 14.409 c -5.592,1.759 -11.014,4.006 -16.215,6.721 l -10.191,-10.191 c -5.739,-5.739 -15.075,-5.74 -20.817,0 l -21.759,21.759 c -5.739,5.739 -5.739,15.078 0,20.817 l 10.191,10.191 c -2.715,5.201 -4.962,10.624 -6.72,16.215 h -14.408 c -8.116,0 -14.72,6.603 -14.72,14.719 v 30.772 c 0,5.547 3.087,10.384 7.631,12.893 H 101.673 c -4.153,0 -7.518,3.366 -7.518,7.518 0,4.152 3.366,7.518 7.518,7.518 h 147.134 c 0.483,1.007 0.968,2.014 1.486,3.006 l -10.191,10.191 c -2.78,2.78 -4.311,6.477 -4.311,10.409 0,3.932 1.532,7.628 4.311,10.408 l 21.759,21.76 c 5.743,5.741 15.079,5.74 20.817,0 l 10.191,-10.192 c 5.201,2.715 10.625,4.963 16.215,6.721 v 14.409 c 0,8.116 6.604,14.719 14.72,14.719 h 30.771 c 8.116,0 14.719,-6.603 14.719,-14.719 V 464.23 c 5.592,-1.758 11.015,-4.006 16.216,-6.721 l 10.191,10.192 c 2.78,2.78 6.478,4.312 10.409,4.312 3.932,0 7.629,-1.532 10.408,-4.312 l 21.758,-21.759 c 2.78,-2.78 4.312,-6.477 4.312,-10.409 0,-3.932 -1.531,-7.628 -4.312,-10.409 l -10.191,-10.191 c 2.715,-5.2 4.962,-10.622 6.721,-16.215 h 14.408 c 8.116,0 14.72,-6.603 14.72,-14.72 v -30.772 c 0,-8.116 -6.604,-14.719 -14.72,-14.719 h -14.408 c -1.759,-5.593 -4.007,-11.016 -6.721,-16.215 L 438.28,312.1 c 5.739,-5.739 5.739,-15.078 0,-20.817 l -10.024,-10.024 v -17.045 c 3.691,1.035 10.685,-0.917 12.912,-6.706 l 1.845,-4.517 c 1.461,0.051 2.926,0.043 4.39,-0.023 l 1.89,4.502 c 2.403,5.72 9.009,8.416 14.729,6.015 l 14.705,-6.176 c 4.784,-2.3 8.408,-7.468 6.019,-14.73 l -1.889,-4.5 c 1.071,-0.999 2.101,-2.039 3.09,-3.118 l 4.517,1.845 c 4.022,1.75 12.136,0.384 14.671,-6.161 l 6.032,-14.767 c 2.343,-5.744 -0.421,-12.324 -6.162,-14.671 z m -75.883,152.336 h 19.779 v 30.138 h -19.779 c -3.449,0 -6.455,2.346 -7.293,5.692 -2.026,8.092 -5.232,15.826 -9.528,22.987 -1.775,2.958 -1.308,6.744 1.132,9.184 l 13.99,13.99 -21.312,21.311 -13.989,-13.99 c -2.439,-2.439 -6.224,-2.907 -9.184,-1.132 -7.164,4.297 -14.898,7.502 -22.987,9.528 -3.346,0.837 -5.693,3.844 -5.693,7.293 v 19.779 H 324.12 v -19.779 c 0,-3.449 -2.347,-6.456 -5.693,-7.293 -8.088,-2.025 -15.821,-5.23 -22.986,-9.528 -2.96,-1.774 -6.745,-1.307 -9.184,1.132 l -13.989,13.99 -21.312,-21.311 13.99,-13.99 c 2.439,-2.439 2.906,-6.225 1.131,-9.183 -4.297,-7.164 -7.502,-14.898 -9.527,-22.987 -0.838,-3.346 -3.844,-5.692 -7.293,-5.692 h -19.779 v -30.138 h 19.779 c 3.449,0 6.455,-2.347 7.293,-5.692 2.025,-8.089 5.23,-15.822 9.527,-22.986 1.775,-2.958 1.308,-6.744 -1.131,-9.184 l -13.99,-13.99 21.311,-21.311 13.99,13.99 c 2.44,2.439 6.224,2.906 9.184,1.131 7.163,-4.296 14.897,-7.502 22.986,-9.527 3.346,-0.837 5.693,-3.844 5.693,-7.293 v -19.779 h 30.138 v 19.779 c 0,3.449 2.347,6.456 5.693,7.293 8.09,2.026 15.824,5.231 22.987,9.527 2.958,1.775 6.744,1.308 9.184,-1.131 l 13.989,-13.99 21.312,21.311 -13.991,13.99 c -2.439,2.439 -2.906,6.226 -1.131,9.184 4.296,7.16 7.501,14.893 9.528,22.986 0.838,3.345 3.845,5.691 7.293,5.691 z m 63.522,-132.09 -6.139,-2.507 c -3.193,-1.306 -6.863,-0.269 -8.904,2.511 -2.347,3.197 -5.149,6.025 -8.329,8.407 -2.762,2.068 -3.761,5.749 -2.426,8.929 l 2.569,6.117 -7.726,3.245 -2.569,-6.117 c -1.335,-3.181 -4.664,-5.042 -8.074,-4.52 -3.925,0.604 -7.906,0.625 -11.833,0.061 -3.418,-0.492 -6.723,1.407 -8.028,4.599 l -2.507,6.139 -7.757,-3.169 2.508,-6.138 c 1.304,-3.193 0.268,-6.863 -2.512,-8.904 -3.196,-2.346 -6.025,-5.148 -8.407,-8.329 -2.067,-2.76 -5.747,-3.762 -8.929,-2.425 l -6.115,2.569 -3.245,-7.726 6.116,-2.569 c 3.181,-1.336 5.044,-4.664 4.52,-8.074 -0.603,-3.927 -0.624,-7.908 -0.061,-11.833 0.49,-3.414 -1.406,-6.723 -4.599,-8.028 l -6.138,-2.508 3.169,-7.757 6.139,2.508 c 3.19,1.305 6.862,0.27 8.904,-2.511 2.348,-3.197 5.149,-6.025 8.328,-8.406 2.762,-2.068 3.761,-5.748 2.426,-8.929 l -2.569,-6.117 7.726,-3.245 2.57,6.117 c 1.336,3.181 4.664,5.045 8.073,4.52 3.928,-0.604 7.909,-0.623 11.833,-0.061 3.416,0.491 6.722,-1.407 8.027,-4.599 l 2.507,-6.138 7.757,3.168 -2.507,6.139 c -1.304,3.192 -0.268,6.862 2.511,8.904 3.199,2.348 6.027,5.15 8.406,8.328 2.067,2.761 5.746,3.763 8.929,2.426 l 6.117,-2.569 3.245,7.726 -6.117,2.569 c -3.18,1.336 -5.044,4.664 -4.52,8.074 0.603,3.926 0.624,7.907 0.062,11.834 -0.489,3.414 1.407,6.722 4.599,8.026 l 6.138,2.508 z" />
  </g>
</svg>
