<?xml version="1.0" encoding="UTF-8" standalone="no"?>
<svg
   xmlns:dc="http://purl.org/dc/elements/1.1/"
   xmlns:cc="http://creativecommons.org/ns#"
   xmlns:rdf="http://www.w3.org/1999/02/22-rdf-syntax-ns#"
   xmlns:svg="http://www.w3.org/2000/svg"
   xmlns="http://www.w3.org/2000/svg"
   xmlns:sodipodi="http://sodipodi.sourceforge.net/DTD/sodipodi-0.dtd"
   xmlns:inkscape="http://www.inkscape.org/namespaces/inkscape"
   inkscape:version="1.0 (4035a4fb49, 2020-05-01)"
   sodipodi:docname="bounding-box.svg"
   version="1.1"
   width="512"
   viewBox="0 0 60 60"
   height="512"
   enable-background="new 0 0 60 60"
   id="Layer_1">
  <metadata
     id="metadata11">
    <rdf:RDF>
      <cc:Work
         rdf:about="">
        <dc:format>image/svg+xml</dc:format>
        <dc:type
           rdf:resource="http://purl.org/dc/dcmitype/StillImage" />
        <dc:title></dc:title>
      </cc:Work>
    </rdf:RDF>
  </metadata>
  <defs
     id="defs9" />
  <sodipodi:namedview
     inkscape:current-layer="Layer_1"
     inkscape:window-maximized="1"
     inkscape:window-y="-8"
     inkscape:window-x="-8"
     inkscape:cy="362.29758"
     inkscape:cx="256"
     inkscape:zoom="1.1289062"
     showgrid="false"
     id="namedview7"
     inkscape:window-height="745"
     inkscape:window-width="1366"
     inkscape:pageshadow="2"
     inkscape:pageopacity="0"
     guidetolerance="10"
     gridtolerance="10"
     objecttolerance="10"
     borderopacity="1"
     bordercolor="#666666"
     pagecolor="#ffffff" />
  <path
     style="stroke-width:0.945068"
     id="path2"
     d="M 55.844918,51.139319 V 9.2938123 c 1.625745,-0.422386 2.835601,-1.8889253 2.835601,-3.6455597 0,-2.0845269 -1.695689,-3.7797405 -3.780801,-3.7797405 -1.756182,0 -3.224078,1.2095169 -3.646582,2.8348054 H 9.3958905 C 8.973386,3.078029 7.5054901,1.8685121 5.7493082,1.8685121 c -2.0851117,0 -3.7808008,1.6952136 -3.7808008,3.7797405 0,1.7566344 1.2098563,3.2231737 2.8356006,3.6455597 V 51.139319 c -1.6257443,0.422386 -2.8356006,1.888925 -2.8356006,3.645559 0,2.084528 1.6956891,3.779741 3.7808008,3.779741 1.7561819,0 3.2240778,-1.209516 3.6465823,-2.834805 H 51.253136 c 0.422504,1.625289 1.8904,2.834805 3.646582,2.834805 2.085112,0 3.780801,-1.695213 3.780801,-3.779741 0,-1.756634 -1.209856,-3.223173 -2.835601,-3.645559 z m -1.8904,-0.01417 c -0.203218,0.05292 -0.400765,0.122841 -0.59075,0.208831 -0.867694,0.393093 -1.57943,1.117858 -1.952784,1.998538 -0.06805,0.164418 -0.127602,0.333561 -0.172971,0.507429 H 9.4100685 C 9.072632,52.535933 7.9988846,51.462487 6.6935631,51.125145 V 9.3079863 C 6.86748,9.2626294 7.0357256,9.2049883 7.1992453,9.1360081 7.2285464,9.1237239 7.2540669,9.1076601 7.2824228,9.0953759 8.3183623,8.6323577 9.1246181,7.6921473 9.4091233,6.5931877 H 51.237067 c 0.285451,1.1008494 1.090761,2.040115 2.126701,2.5021882 0.02836,0.012284 0.05483,0.028348 0.08318,0.040632 0.16352,0.068036 0.331765,0.1266213 0.505682,0.1719782 V 51.125145 Z" />
  <path
     style="stroke-width:0.945068"
     id="path4"
     d="m 47.711471,17.682001 c 0.925351,-0.344901 1.689072,-1.052657 2.104961,-1.950346 1.587936,-3.431059 -2.57,-6.8167617 -5.612599,-4.646246 -0.711735,0.50743 -1.25239,1.273773 -1.472622,2.122325 -0.911173,0 -1.822346,0 -2.733519,0 -2.15033,0 -4.300661,0 -6.450991,0 -2.519904,0 -5.038862,0 -7.558766,0 -2.018003,0 -4.036951,0 -6.054953,0 -0.513244,0 -1.026487,0 -1.539731,0 -0.09357,0 -0.368628,0.0463 -0.448024,-0.0076 -0.111534,-0.0756 -0.16541,-0.420496 -0.222123,-0.549007 -0.09547,-0.212611 -0.210779,-0.416716 -0.342162,-0.609483 -0.253314,-0.368525 -0.569956,-0.693582 -0.932913,-0.95344 -2.657902,-1.8964845 -6.4963607,0.478137 -5.908446,3.71265 0.0983,0.540503 0.311916,1.059272 0.626667,1.509062 0.506627,0.724765 1.285472,1.281332 2.145605,1.502446 v 2.736533 6.455796 7.560426 6.051365 1.533629 c 0,0.114337 0.01323,0.494201 -0.0085,0.510266 -1.003802,0.286315 -1.906469,0.968558 -2.38285,1.875696 -0.01512,0.02835 -0.03119,0.05575 -0.04537,0.0841 -0.06805,0.137961 -0.124766,0.279701 -0.175807,0.426166 -0.01229,0.03685 -0.02268,0.0737 -0.03403,0.110557 -0.112479,0.357185 -0.18904,0.728545 -0.18904,1.122583 0,2.167681 1.914976,3.912031 4.069087,3.754227 0.343108,-0.02551 0.682434,-0.09638 1.005693,-0.2145 1.136131,-0.415772 2.061482,-1.419293 2.366782,-2.594791 h 24.814341 c -0.04254,0 0.631393,1.30212 0.711735,1.402283 0.347834,0.433725 0.790188,0.7928 1.290198,1.037538 2.083221,1.023366 4.67118,-0.1304 5.299738,-2.362337 0.516079,-1.83412 -0.545381,-3.889353 -2.321412,-4.551753 -0.122876,-0.0463 -0.244807,-0.09733 -0.374299,-0.130401 V 17.811458 c 0.129492,-0.03213 0.250478,-0.08315 0.373354,-0.129457 z m -2.263755,24.952902 c -1.322335,0.343956 -2.357329,1.378661 -2.701382,2.700624 H 17.903637 c -0.08318,-0.320333 -0.208889,-0.619877 -0.367683,-0.901467 -0.0075,-0.01417 -0.01512,-0.02835 -0.02268,-0.04252 -0.330821,-0.567907 -0.79964,-1.036594 -1.367705,-1.367322 -0.01418,-0.0085 -0.02836,-0.01512 -0.04254,-0.02268 -0.281667,-0.158751 -0.581296,-0.284427 -0.901719,-0.366636 v -24.83573 c 1.322335,-0.343956 2.358274,-1.37866 2.701382,-2.700624 h 24.843642 c 0.344053,1.321964 1.379047,2.356668 2.701382,2.700624 z" />
</svg>
