<?xml version="1.0" encoding="UTF-8"?><!DOCTYPE svg PUBLIC "-//W3C//DTD SVG 1.1//EN" "http://www.w3.org/Graphics/SVG/1.1/DTD/svg11.dtd"><svg xmlns="http://www.w3.org/2000/svg"><symbol id="accounting" viewBox="0 0 24 25"><path fill-rule="evenodd" clip-rule="evenodd" d="M4.986 5.03c0-.763.619-1.382 1.382-1.382h8.987a.5.5 0 0 1 .5.5v1.813h2.823a.81.81 0 0 1 .81.81v13.26a.46.46 0 0 1-.46.461h-1.04v-.002H7.46a2.472 2.472 0 0 1-2.457-2.199.46.46 0 0 1-.017-.124V5.03zm13.002 2.243h-2.133v9.657H7.414a1.09 1.09 0 0 0 .046 2.178l10.528-.003V7.273zm-8.644 3a1.25 1.25 0 1 1-2.5 0 1.25 1.25 0 0 1 2.5 0zm-1.25 5.06a1.25 1.25 0 1 0 0-2.5 1.25 1.25 0 0 0 0 2.5zm5.498-1.25a1.25 1.25 0 1 1-2.5 0 1.25 1.25 0 0 1 2.5 0zm-1.25-2.56a1.25 1.25 0 1 0 0-2.5 1.25 1.25 0 0 0 0 2.5zM7 7.617a.5.5 0 0 1-.5-.5v-1a.5.5 0 0 1 .5-.5h6.483a.5.5 0 0 1 .5.5v1a.5.5 0 0 1-.5.5H7z"/></symbol><symbol id="add-outline" viewBox="0 0 25 25"><path fill-rule="evenodd" clip-rule="evenodd" d="M12.5 22.314c5.523 0 10-4.478 10-10 0-5.523-4.477-10-10-10s-10 4.477-10 10c0 5.522 4.477 10 10 10zm0-1.91a8.09 8.09 0 1 1 0-16.18 8.09 8.09 0 0 1 0 16.18zm-4.197-9.11v2.024h3.178v3.193h2.04v-3.193h3.176v-2.023H13.52V8.116h-2.039v3.179H8.303z"/></symbol><symbol id="add" viewBox="0 0 24 25"><path fill-rule="evenodd" clip-rule="evenodd" d="M18.4 4.023H8.8c-.88 0-1.6.72-1.6 1.6v9.6c0 .88.72 1.6 1.6 1.6h9.6c.879 0 1.6-.72 1.6-1.6v-9.6c0-.88-.721-1.6-1.6-1.6zm-12.8 3.2H4v11.2c0 .88.721 1.6 1.6 1.6h11.2v-1.6H5.6v-11.2zm8.8 4h3.2v-1.6h-3.2v-3.2h-1.6v3.2H9.6v1.6h3.2v3.2h1.6v-3.2z"/></symbol><symbol id="arrow-left" viewBox="0 0 24 25"><path d="M12.96 4.023l2.791 2.778-5.197 5.222 5.197 5.224-2.791 2.776-7.96-8 7.96-8z"/></symbol><symbol id="arrow-right" viewBox="0 0 24 25"><path d="M17.75 12.023l-7.959 8L7 17.247l5.196-5.224L7 6.801l2.791-2.778 7.96 8z"/></symbol><symbol id="banks" viewBox="0 0 24 25"><path fill-rule="evenodd" clip-rule="evenodd" d="M12.412 4.11a1 1 0 0 0-.824 0L4.517 7.308a.879.879 0 0 0 .362 1.68h14.242a.879.879 0 0 0 .362-1.68l-7.071-3.196zm-6.728 7.336a1 1 0 0 1 1-1h.527a1 1 0 0 1 1 1v3.915a1 1 0 0 1-1 1h-.527a1 1 0 0 1-1-1v-3.915zm5.053 0a1 1 0 0 1 1-1h.526a1 1 0 0 1 1 1v3.915a1 1 0 0 1-1 1h-.526a1 1 0 0 1-1-1v-3.915zM4 19.038c0 .544.441.985.986.985h14.028a.986.986 0 1 0 0-1.971H4.986a.986.986 0 0 0-.986.986zm11.79-7.592a1 1 0 0 1 1-1h.526a1 1 0 0 1 1 1v3.915a1 1 0 0 1-1 1h-.526a1 1 0 0 1-1-1v-3.915zm-4.202-5.408a1 1 0 0 1 .824 0l1.459.66a.22.22 0 0 1-.09.42H10.22a.22.22 0 0 1-.09-.42l1.458-.66z"/></symbol><symbol id="caret-down" viewBox="0 0 24 25"><path d="M16 10.023l-4 4.5-4-4.5h8z"/></symbol><symbol id="caret-up-down" viewBox="0 0 24 25"><path fill-rule="evenodd" clip-rule="evenodd" d="M12 19.323l-4-4.8h8l-4 4.8zM12 4.523l4 4.8H8l4-4.8z"/></symbol><symbol id="caret-up" viewBox="0 0 24 25"><path d="M8 14.523l4-4.5 4 4.5H8z"/></symbol><symbol id="categories" viewBox="0 0 24 25"><path fill-rule="evenodd" clip-rule="evenodd" d="M18.969 15.347a1 1 0 0 1 1 1v2.706a1 1 0 0 1-1 1H16.28a1 1 0 0 1-1-1v-2.706a1 1 0 0 1 1-1h2.688zM13.344 3.994a1 1 0 0 1 1 1V7.7a1 1 0 0 1-1 1h-.875v2.824h3.75v.94H7.78v-.94h3.75V8.7h-.875a1 1 0 0 1-1-1V4.994a1 1 0 0 1 1-1h2.688zM8.719 16.347a1 1 0 0 0-1-1H5.03a1 1 0 0 0-1 1v2.706a1 1 0 0 0 1 1H7.72a1 1 0 0 0 1-1v-2.706z"/><path d="M8.235 11.523c-1.603 0-2.353 1.494-2.353 4.22h.942c0-2.275.505-3.282 1.411-3.282v-.938zM16.235 11.523c1.604 0 2.353 1.494 2.353 4.22h-.941c0-2.275-.505-3.282-1.412-3.282v-.938z"/></symbol><symbol id="clip" viewBox="0 0 24 25"><path d="M16.701 9.699l-4.182 7.243a2.908 2.908 0 1 1-5.038-2.909l4.545-7.873a1.819 1.819 0 0 1 3.15 1.818l-3.819 6.614a.73.73 0 0 1-.993.266.73.73 0 0 1-.267-.994l3.455-5.983-.945-.546-3.454 5.984a1.819 1.819 0 0 0 3.149 1.818l3.818-6.613a2.908 2.908 0 1 0-5.039-2.91l-4.545 7.874A3.998 3.998 0 0 0 8 18.952a3.998 3.998 0 0 0 5.464-1.465l4.182-7.243L16.7 9.7z"/></symbol><symbol id="close" viewBox="0 0 24 25"><path fill-rule="evenodd" clip-rule="evenodd" d="M6.73 5.707a1 1 0 0 1 1.413.046l4.27 4.555 4.27-4.555a1 1 0 0 1 1.46 1.368l-4.359 4.65 4.359 4.649a1 1 0 0 1-1.46 1.368l-4.27-4.556-4.27 4.556a1 1 0 0 1-1.46-1.368l4.36-4.65-4.36-4.649a1 1 0 0 1 .047-1.414z"/></symbol><symbol id="code" viewBox="0 0 24 25"><path fill-rule="evenodd" clip-rule="evenodd" d="M14.177 6.364l-1.085-.34-3.4 10.832 1.086.34 3.399-10.832zm-8.97 5.395l3.645-3.664-.606-.603L4 11.759l4.246 4.267.606-.603-3.645-3.664zm13.586 0l-3.645-3.664.606-.603L20 11.759l-4.246 4.267-.606-.603 3.645-3.664z"/></symbol><symbol id="contacts" viewBox="0 0 24 25"><path fill-rule="evenodd" clip-rule="evenodd" d="M11.111 8.331c0 1.275-.995 2.308-2.222 2.308-1.227 0-2.222-1.033-2.222-2.308 0-1.274.995-2.308 2.222-2.308 1.227 0 2.222 1.034 2.222 2.308zm5.818.462c0 1.062-.814 1.923-1.818 1.923s-1.818-.861-1.818-1.923.814-1.923 1.818-1.923 1.818.86 1.818 1.923zm-3.151 8.097c0 .766-.181 1.49-.503 2.133H4.502A4.755 4.755 0 0 1 4 16.89c0-2.055 1.301-3.81 3.135-4.505.29.373 1.015.638 1.865.638.799 0 1.488-.234 1.808-.572 1.746.736 2.97 2.447 2.97 4.44zm1.275 2.133h4.338c.386-.618.609-1.35.609-2.133 0-2.22-1.79-4.02-4-4.02-.716 0-1.388.188-1.969.52a4.783 4.783 0 0 1 1.022 5.633z"/></symbol><symbol id="customize" viewBox="0 0 24 25"><path fill-rule="evenodd" clip-rule="evenodd" d="M7.796 17.398a3.001 3.001 0 0 1 5.658 0h6.171a1 1 0 0 1 0 2h-6.17a3.001 3.001 0 0 1-5.66 0h-2.17a1 1 0 1 1 0-2h2.17zm6-6a3.001 3.001 0 0 1 5.658 0h.171a1 1 0 0 1 0 2h-.17a3.001 3.001 0 0 1-5.66 0h-8.17a1 1 0 1 1 0-2h8.17zm-7-6a3.001 3.001 0 0 1 5.658 0h7.171a1 1 0 1 1 0 2h-7.17a3.001 3.001 0 0 1-5.66 0h-1.17a1 1 0 0 1 0-2h1.17zm2.829 3a2 2 0 1 0 0-4 2 2 0 0 0 0 4zm7 6a2 2 0 1 0 0-4 2 2 0 0 0 0 4zm-6 6a2 2 0 1 0 0-4 2 2 0 0 0 0 4z"/></symbol><symbol id="delete" viewBox="0 0 24 25"><path fill-rule="evenodd" clip-rule="evenodd" d="M16.216 4.88h-1.034c0-.014.003-.027.005-.04.002-.015.004-.03.004-.045 0-.977-.795-1.772-1.771-1.772h-2.255c-.975 0-1.77.796-1.77 1.772 0 .016.001.032.004.047a.433.433 0 0 1 .004.038H8.368C7.06 4.88 6 5.658 6 6.619v.062h12.585V6.62c0-.96-1.06-1.74-2.369-1.74zm-9.51 12.775V7.595H17.88v10.06a2.368 2.368 0 0 1-2.368 2.368h-6.44a2.368 2.368 0 0 1-2.368-2.368zm2.622-.056a.55.55 0 0 0 .549-.549V9.791a.549.549 0 0 0-1.097 0v7.26a.55.55 0 0 0 .548.548zm3.513-.549a.548.548 0 1 1-1.098 0V9.791a.548.548 0 0 1 1.098 0v7.26zm2.416.549a.55.55 0 0 0 .548-.549V9.791a.548.548 0 0 0-1.099 0v7.26a.55.55 0 0 0 .55.548zM11.165 3.744c-.579 0-1.05.472-1.05 1.05 0 .021.003.041.006.062l.003.024h4.338c0-.012.002-.023.004-.035a.354.354 0 0 0 .004-.05c0-.58-.471-1.05-1.05-1.05h-2.255z"/></symbol><symbol id="distributor" viewBox="0 0 25 24"><path fill-rule="evenodd" clip-rule="evenodd" d="M8.906 6.71c1.532-1.201 3.077-1.84 4.627-1.84.978 0 1.831.266 2.524.825 1.113.9 1.303 2.52.952 3.848-.067.254-.174.481-.319.79-.057.122-.12.256-.188.41a2.983 2.983 0 0 1-.139.265l-.006.012a1.404 1.404 0 0 0-.097.19 4.767 4.767 0 0 1-.282.586c-.188.356-.322.603-.388.705-.376.641-.67 1.209-.885 1.704l-.003.008c-.205.45-.295.845-.295 1.187 0 .295.066.554.194.786.101.137.234.21.462.21.213 0 .498-.076.868-.284.367-.206.79-.526 1.27-.974.838-.8 1.682-1.891 2.527-3.285l-.85.353a.545.545 0 0 1-.417-1.007l2.792-1.158a.545.545 0 0 1 .753.504v3.473a.545.545 0 1 1-1.089 0v-1.073c-.424.89-.93 1.71-1.517 2.458l-.001.001-.002.002v.002c-.779.966-1.626 1.733-2.545 2.29-.92.556-1.835.854-2.741.854-.899 0-1.66-.274-2.207-.878a2.828 2.828 0 0 1-.701-1.476c-.665.787-1.293 1.413-1.883 1.873-.856.684-1.755 1.06-2.69 1.06-.867 0-1.605-.295-2.163-.904-.593-.598-.852-1.432-.852-2.419 0-1.454.516-3.037 1.494-4.737l.003-.005a15.441 15.441 0 0 1 3.794-4.355zm1.752 1.596C9.613 9.373 8.726 10.652 8 12.148c-.709 1.505-1.04 2.754-1.04 3.762 0 .4.073.61.141.71.028.04.058.066.093.083a.42.42 0 0 0 .185.033c.32 0 .717-.127 1.2-.45.482-.324 1.02-.823 1.615-1.516 1.21-1.434 2.513-3.175 3.911-5.227.183-.268.27-.408.334-.578.22-.575.303-1.308-.107-1.82l-.01-.013c-.154-.206-.405-.344-.857-.344-.806 0-1.739.45-2.807 1.518z"/></symbol><symbol id="docs-related" viewBox="0 0 25 24"><path fill-rule="evenodd" clip-rule="evenodd" d="M8.762 1.637c-.874 0-1.582.709-1.582 1.583v1.57H4.989c-.874 0-1.583.708-1.583 1.582V20.78c0 .874.709 1.583 1.583 1.583h11.345c.874 0 1.582-.709 1.582-1.583v-1.57h2.191c.874 0 1.583-.708 1.583-1.582V5.703c0-.498-.226-.968-.614-1.278l-3.037-2.429a1.637 1.637 0 0 0-1.022-.359H8.762zM8.53 3.22c0-.129.104-.233.232-.233h8.255c.065 0 .128.022.18.063l3.035 2.429a.287.287 0 0 1 .108.224v11.925a.233.233 0 0 1-.233.233h-2.19V8.854c0-.497-.227-.967-.615-1.278l-3.036-2.428a1.637 1.637 0 0 0-1.022-.359H8.53V3.22zM4.756 6.372c0-.129.104-.233.233-.233h8.255c.065 0 .128.022.179.063l3.036 2.429a.287.287 0 0 1 .108.223V20.78a.233.233 0 0 1-.233.233H4.989a.233.233 0 0 1-.233-.233V6.372zM7.488 16.74a.454.454 0 0 0 0 .907h6.347a.453.453 0 1 0 0-.907H7.488zm0 1.961a.454.454 0 0 0 0 .907h6.347a.454.454 0 0 0 0-.907H7.488zM8.594 8.137l1.528 1.809H9.044v.723l1.617.915 1.618-.915v-.723H11.2l1.528-1.81 1.527 1.81h-1.078v.986a.45.45 0 0 1-.228.391l-1.375.778 1.752.99a.45.45 0 0 1 .228.392v1.693a.45.45 0 0 1-.9 0v-1.43l-1.994-1.128-1.993 1.127v1.431a.45.45 0 1 1-.9 0v-1.693a.45.45 0 0 1 .228-.392l1.752-.99-1.375-.778a.45.45 0 0 1-.229-.391v-.986H7.066l1.528-1.81z"/></symbol><symbol id="edit" viewBox="0 0 24 25"><path fill-rule="evenodd" clip-rule="evenodd" d="M20 7.754l-3.723-3.722-9.574 9.577 3.723 3.722L20 7.754zM4 19.974l.521-4.187 3.726 3.725L4 19.973z"/></symbol><symbol id="email" viewBox="0 0 24 25"><path fill-rule="evenodd" clip-rule="evenodd" d="M12.002 13.796L4 8.718v7.971c0 .818.673 1.477 1.498 1.477h13c.833 0 1.502-.659 1.502-1.477v-7.97l-7.998 5.079zM5.498 5.024c-.772 0-1.408.58-1.489 1.322-.004.05-.009.1-.009.155l8.002 5.075L20 6.501a1.494 1.494 0 0 0-1.503-1.477H5.498z"/></symbol><symbol id="export" viewBox="0 0 24 25"><path fill-rule="evenodd" clip-rule="evenodd" d="M11.25 5.545a.75.75 0 0 1 1.5 0v7.728c0 .04-.003.08-.01.119l2.044-1.553 1.216.873-4 3.04-4-3.04 1.216-.873 2.043 1.553a.759.759 0 0 1-.009-.119V5.545zM4 15.023h2v3h12v-3h2v5H4v-5z"/></symbol><symbol id="help-outline" viewBox="0 0 24 25"><path d="M20.625 12.023a8.625 8.625 0 1 1-17.25 0 8.625 8.625 0 0 1 17.25 0zm-16.257 0a7.632 7.632 0 1 0 15.264 0 7.632 7.632 0 0 0-15.264 0z"/><path fill-rule="evenodd" clip-rule="evenodd" d="M11.208 13.475c.004-.496.078-.86.221-1.09.144-.23.43-.51.859-.84.251-.205.453-.427.603-.664.15-.238.226-.504.226-.798 0-.326-.086-.581-.258-.765-.172-.185-.417-.277-.736-.277a.992.992 0 0 0-.667.234c-.183.156-.276.385-.28.686h-1.51l-.01-.032c-.01-.68.213-1.202.672-1.563.46-.362 1.058-.543 1.795-.543.794 0 1.417.202 1.869.604.452.402.678.949.678 1.64 0 .45-.132.867-.396 1.25a3.54 3.54 0 0 1-.992.962c-.216.167-.358.334-.425.502-.068.169-.101.4-.101.694h-1.548zm1.558 2.202h-1.563v-1.33h1.563v1.33z"/></symbol><symbol id="help" viewBox="0 0 24 25"><path fill-rule="evenodd" clip-rule="evenodd" d="M12 4.023a8 8 0 1 0 0 16 8 8 0 0 0 0-16zm.813 12.091H11v-1.543h1.814v1.543zm.6-3.944c.46-.3.843-.673 1.15-1.117.307-.445.46-.928.46-1.45 0-.803-.263-1.438-.787-1.905-.525-.467-1.248-.7-2.17-.7-.856 0-1.55.21-2.083.63-.533.419-.793 1.024-.78 1.814l.011.037h1.754c.004-.35.112-.615.324-.796.212-.181.47-.272.774-.272.371 0 .656.107.855.32.2.215.3.511.3.89 0 .341-.088.65-.262.926a3.265 3.265 0 0 1-.7.771c-.499.383-.831.708-.998.976-.166.267-.252.69-.256 1.265h1.796c0-.341.04-.61.118-.805.078-.196.242-.39.493-.584z"/></symbol><symbol id="home" viewBox="0 0 24 25"><path fill-rule="evenodd" clip-rule="evenodd" d="M3.544 10.906a1 1 0 0 0 1.306 0l7.1-6.132 7.297 6.3a1 1 0 0 0 1.307 0l.446-.385-8.396-7.25a1 1 0 0 0-1.307 0l-8.2 7.081.447.386zm9.209-2.437l2.344 2.035 2.655 2.303a1 1 0 0 1 .344.756v4.71a1 1 0 0 1-1 1H14.33v-4.995a1 1 0 0 0-1-1h-2.466a1 1 0 0 0-1 1v4.995H7.096a1 1 0 0 1-1-1v-4.71a1 1 0 0 1 .345-.756l2.655-2.303 2.346-2.036a1 1 0 0 1 1.31 0z"/></symbol><symbol id="import" viewBox="0 0 24 25"><path fill-rule="evenodd" clip-rule="evenodd" d="M12.75 8.042l2.034 1.546L16 8.716l-4-3.04-4 3.04 1.216.872 2.034-1.546v7.232a.75.75 0 0 0 1.5 0V8.041zM4 15.024h2v3h12v-3h2v5H4v-5z"/></symbol><symbol id="info-outline" viewBox="0 0 24 25"><path fill-rule="evenodd" clip-rule="evenodd" d="M4 12.023a8 8 0 1 0 16 0 8 8 0 0 0-16 0zm15 0a7 7 0 1 1-14 0 7 7 0 0 1 14 0zm-6 4.41c-.016.196-.122.344-.318.443a1.421 1.421 0 0 1-.647.147 1.4 1.4 0 0 1-.611-.134.613.613 0 0 1-.353-.418c-.016-.805-.028-1.627-.036-2.467-.008-.84-.02-1.662-.035-2.467a.784.784 0 0 1 .377-.385c.172-.086.368-.129.588-.129.204 0 .396.039.576.116.18.077.31.197.388.36.016.805.028 1.627.036 2.467.008.839.02 1.661.035 2.466zm-1.711-9.114a.984.984 0 0 0-.289.714c0 .267.096.498.289.695a.944.944 0 0 0 .7.295.977.977 0 0 0 .712-.295.946.946 0 0 0 .299-.695c0-.28-.1-.517-.299-.714a.977.977 0 0 0-.711-.296.944.944 0 0 0-.701.296z"/></symbol><symbol id="info" viewBox="0 0 24 25"><path fill-rule="evenodd" clip-rule="evenodd" d="M12 20.023a8 8 0 1 1 0-16 8 8 0 0 1 0 16zm1-3.59c-.016-.806-.027-1.628-.035-2.467-.008-.84-.02-1.662-.036-2.467a.731.731 0 0 0-.388-.36 1.452 1.452 0 0 0-.576-.116c-.22 0-.416.043-.588.129a.784.784 0 0 0-.377.385c.016.805.027 1.628.035 2.467.008.84.02 1.662.036 2.467a.613.613 0 0 0 .353.418 1.4 1.4 0 0 0 .611.134c.236 0 .451-.049.647-.147.196-.099.302-.247.318-.444zm-1.711-7.705A.962.962 0 0 1 11 8.033c0-.28.096-.517.289-.714a.944.944 0 0 1 .7-.296c.276 0 .513.099.712.296.2.197.299.435.299.714 0 .267-.1.498-.299.695a.977.977 0 0 1-.711.295.944.944 0 0 1-.701-.295z"/></symbol><symbol id="input" viewBox="0 0 24 25"><path fill-rule="evenodd" clip-rule="evenodd" d="M13.231 3.11a8.75 8.75 0 1 0 7.284 6.64l-1.297 1.342a7.25 7.25 0 1 1-7.354-6.567l1.367-1.416zm-1.738 10.666l5.114-5.113a.75.75 0 1 0-1.061-1.061l-5.113 5.113-.345-2.53L8.61 9.94l.679 4.978 4.978.679-.244-1.477-2.53-.345z"/></symbol><symbol id="list" viewBox="0 0 24 25"><path fill-rule="evenodd" clip-rule="evenodd" d="M4.8 4.023h14.4c.356 0 .8.356.8.8v14.4c0 .356-.444.8-.8.8H4.8c-.444 0-.8-.444-.8-.8v-14.4c0-.444.356-.8.8-.8zm13.422 14.223V5.8H5.778v12.445h12.444zm-7.11-10.667h5.332v1.778h-5.333V7.579zm5.332 3.555h-5.333v1.778h5.333v-1.778zm-5.333 3.556h5.333v1.778h-5.333V14.69zM9.333 7.58H7.556v1.778h1.777V7.579zm-1.777 3.555h1.777v1.778H7.556v-1.778zm1.777 3.556H7.556v1.778h1.777V14.69z"/></symbol><symbol id="loading" viewBox="0 0 24 25"><path d="M7.733 8.29a1.6 1.6 0 1 0 0-3.2 1.6 1.6 0 0 0 0 3.2zM12 7.223a1.6 1.6 0 1 0 0-3.2 1.6 1.6 0 0 0 0 3.2z"/><path opacity=".1" d="M16.267 8.29a1.6 1.6 0 1 0 0-3.2 1.6 1.6 0 0 0 0 3.2z"/><path opacity=".2" d="M18.4 11.49a1.6 1.6 0 1 0 0-3.2 1.6 1.6 0 0 0 0 3.2z"/><path opacity=".3" d="M18.4 15.757a1.6 1.6 0 1 0 0-3.2 1.6 1.6 0 0 0 0 3.2z"/><path opacity=".4" d="M16.267 18.957a1.6 1.6 0 1 0 0-3.2 1.6 1.6 0 0 0 0 3.2z"/><path opacity=".6" d="M12 20.023a1.6 1.6 0 1 0 0-3.2 1.6 1.6 0 0 0 0 3.2z"/><path opacity=".8" d="M7.733 18.957a1.6 1.6 0 1 0 0-3.2 1.6 1.6 0 0 0 0 3.2z"/><path opacity=".9" d="M5.6 15.757a1.6 1.6 0 1 0 0-3.2 1.6 1.6 0 0 0 0 3.2z"/><path d="M5.6 11.49a1.6 1.6 0 1 0 0-3.2 1.6 1.6 0 0 0 0 3.2z"/></symbol><symbol id="lock" viewBox="0 0 24 25"><path d="M15.756 7.753c0-2.056-1.685-3.73-3.757-3.73-2.073 0-3.757 1.674-3.757 3.73v2.686H6.5v9.584h11V10.44h-1.744V7.753zm-1.882 2.686h-3.752V7.753c0-1.029.842-1.864 1.877-1.864a1.87 1.87 0 0 1 1.875 1.864v2.686z"/></symbol><symbol id="menu" viewBox="0 0 24 25"><path fill-rule="evenodd" clip-rule="evenodd" d="M4 5.023h16v2.14H4v-2.14zm0 5.854h16v2.14H4v-2.14zm16 5.853H4v2.14h16v-2.14z"/></symbol><symbol id="minus" viewBox="0 0 24 25"><path d="M4 10.023h16v3.879H4z"/></symbol><symbol id="more" viewBox="0 0 24 25"><path fill-rule="evenodd" clip-rule="evenodd" d="M12 7.21a1.687 1.687 0 1 0 0-3.374 1.687 1.687 0 0 0 0 3.373zm1.687 4.814a1.687 1.687 0 1 1-3.374 0 1.687 1.687 0 0 1 3.374 0zm0 6.5a1.687 1.687 0 1 1-3.374 0 1.687 1.687 0 0 1 3.374 0z"/></symbol><symbol id="notification" viewBox="0 0 24 25"><path fill-rule="evenodd" clip-rule="evenodd" d="M13.729 5.814c2.327.56 3.66 2.65 3.66 5.191v4.107L19 16.755v.821H6v-.821l1.627-1.643v-4.107c0-2.528 1.325-4.632 3.661-5.19v-.56c0-.68.546-1.232 1.22-1.232.674 0 1.22.552 1.22 1.232v.56zm-.893 14.175a1.4 1.4 0 0 1-.328.034 1.648 1.648 0 0 1-1.635-1.642h3.258a1.618 1.618 0 0 1-1.296 1.608z"/></symbol><symbol id="output" viewBox="0 0 24 25"><path fill-rule="evenodd" clip-rule="evenodd" d="M13.231 3.61a8.75 8.75 0 1 0 7.284 6.64l-1.297 1.342a7.25 7.25 0 1 1-7.354-6.567l1.367-1.416zm1.771 7.157l.345 2.53 1.477.244-.679-4.978-4.977-.679.243 1.477 2.53.345-5.113 5.113A.75.75 0 1 0 9.89 15.88l5.113-5.113z"/></symbol><symbol id="payment-card" viewBox="0 0 24 25"><path fill-rule="evenodd" clip-rule="evenodd" d="M3.818 8.13h16.364V6.571H3.818v1.557zm0 9.345h16.364v-6.23H3.818v6.23zM20.182 5.793H3.818c-.451 0-.818.349-.818.779v10.903c0 .43.367.78.818.78h16.364c.452 0 .818-.35.818-.78V6.572c0-.43-.366-.78-.818-.78zM5.864 15.918h5.727a.4.4 0 0 0 .409-.39.4.4 0 0 0-.41-.39H5.865a.4.4 0 0 0-.41.39.4.4 0 0 0 .41.39zm10.636 0h1.636a.4.4 0 0 0 .41-.39v-1.557a.4.4 0 0 0-.41-.39H16.5a.4.4 0 0 0-.41.39v1.557a.4.4 0 0 0 .41.39zM5.864 14.36h7.363a.4.4 0 0 0 .41-.39.4.4 0 0 0-.41-.389H5.864a.4.4 0 0 0-.41.39.4.4 0 0 0 .41.389z"/></symbol><symbol id="payment-more" viewBox="0 0 24 25"><path d="M16 12.57a.363.363 0 1 1 0-.727.363.363 0 0 1 0 .726zm0-1.455a1.091 1.091 0 1 0 .001 2.183A1.091 1.091 0 0 0 16 11.115zm-4 8.363a7.272 7.272 0 1 1 0-14.545 7.273 7.273 0 1 1 0 14.545zm0-15.272a8 8 0 1 0 .001 16 8 8 0 0 0-.001-16zm0 8.363a.363.363 0 1 1 0-.726.363.363 0 0 1 0 .726zm0-1.454a1.091 1.091 0 1 0 .001 2.183A1.091 1.091 0 0 0 12 11.115zm-4 1.454a.363.363 0 1 1 0-.726.363.363 0 0 1 0 .726zm0-1.454a1.091 1.091 0 1 0 .001 2.183A1.091 1.091 0 0 0 8 11.115z"/></symbol><symbol id="payment" viewBox="0 0 25 25"><path fill-rule="evenodd" clip-rule="evenodd" d="M8.755 5.828h11.511v9.043h-1.224V9.65c0-.83-.672-1.502-1.501-1.502H8.755v-2.32zm11.511 10.544h-1.224v2.321c0 .83-.672 1.502-1.501 1.502H4.805c-.83 0-1.502-.673-1.502-1.502V9.65c0-.095.01-.188.026-.278v-.08c0-3.792 2.076-4.875 3.967-4.948.077-.012.155-.018.234-.018h12.736c.83 0 1.502.672 1.502 1.502v9.043c0 .83-.672 1.501-1.502 1.501zM17.541 9.65H4.805v9.043H17.54V9.65zm-2.63 4.6a3.708 3.708 0 1 1-7.415 0 3.708 3.708 0 0 1 7.416 0zm-5.598.447v-.947h1.488v-1.487h.954v1.487h1.487v.947h-1.487v1.495h-.954v-1.495H9.313z"/></symbol><symbol id="payroll" viewBox="0 0 25 24"><path d="M22.388 12c0 5.523-4.477 10-10 10s-10-4.477-10-10 4.477-10 10-10 10 4.477 10 10zm-18.09 0a8.09 8.09 0 1 0 16.18 0 8.09 8.09 0 0 0-16.18 0z"/><path d="M13.365 11.193c-.163.218-.514.37-.92.37-.434 0-.803-.172-.95-.413-.934.45-1.597 1.583-1.597 2.91 0 .494.092.962.256 1.378h4.467a3.76 3.76 0 0 0 .256-1.378c0-1.287-.623-2.392-1.512-2.867zM15.527 15.438h2.209c.196-.4.31-.872.31-1.378 0-1.434-.912-2.597-2.037-2.597-.365 0-.707.122-1.003.336.478.568.776 1.37.776 2.26 0 .495-.092.963-.255 1.379zM9.378 15.437h-2.21c-.196-.399-.31-.871-.31-1.377 0-1.435.912-2.597 2.037-2.597.365 0 .707.122 1.003.336-.478.567-.776 1.37-.776 2.26 0 .495.092.963.256 1.378z"/><path fill-rule="evenodd" clip-rule="evenodd" d="M15.556 10.3c.512 0 .926-.439.926-.98 0-.54-.414-.979-.925-.979-.512 0-.926.439-.926.98 0 .54.414.979.925.979zM9.219 10.3c.511 0 .926-.439.926-.98 0-.54-.415-.979-.926-.979-.511 0-.926.439-.926.98 0 .54.415.979.926.979zM12.388 10.26c.625 0 1.131-.525 1.131-1.174 0-.65-.506-1.176-1.131-1.176s-1.132.527-1.132 1.176c0 .649.507 1.175 1.132 1.175z"/></symbol><symbol id="pdf" viewBox="0 0 24 25"><path d="M18.4 4.023H8.8c-.88 0-1.6.72-1.6 1.6v9.6c0 .88.72 1.6 1.6 1.6h9.6c.88 0 1.6-.72 1.6-1.6v-9.6c0-.88-.72-1.6-1.6-1.6zm-6.8 6c0 .664-.536 1.2-1.2 1.2h-.8v1.6H8.4v-4.8h2c.664 0 1.2.536 1.2 1.2v.8zm4 1.6c0 .664-.536 1.2-1.2 1.2h-2v-4.8h2c.664 0 1.2.536 1.2 1.2v2.4zm3.2-2.4h-1.2v.8h1.2v1.2h-1.2v1.6h-1.2v-4.8h2.4v1.2zm-9.2.8h.8v-.8h-.8v.8zm-4-2.8H4v11.2c0 .88.72 1.6 1.6 1.6h11.2v-1.6H5.6v-11.2zm8 4.4h.8v-2.4h-.8v2.4z"/></symbol><symbol id="phone" viewBox="0 0 24 25"><path d="M9.011 11.351a8.416 8.416 0 0 0 3.661 3.661l1.222-1.222c.15-.15.373-.2.567-.133a6.339 6.339 0 0 0 1.983.316c.306 0 .556.25.556.556v1.939c0 .305-.25.555-.556.555A9.444 9.444 0 0 1 7 7.58c0-.306.25-.556.556-.556H9.5c.306 0 .556.25.556.556 0 .694.11 1.361.316 1.983a.557.557 0 0 1-.139.567l-1.222 1.222z"/></symbol><symbol id="play" viewBox="0 0 24 25"><path fill-rule="evenodd" clip-rule="evenodd" d="M12 22.023c5.523 0 10-4.477 10-10 0-5.522-4.477-10-10-10s-10 4.478-10 10c0 5.523 4.477 10 10 10zm0-1.91a8.09 8.09 0 1 1 0-16.18 8.09 8.09 0 0 1 0 16.18zm-2.316-4.358l6.604-3.813L9.684 8.13v7.626z"/></symbol><symbol id="plus" viewBox="0 0 24 25"><path d="M4 13.938V10.08h6.058V4.023h3.886v6.058H20v3.857h-6.055v6.084h-3.886v-6.084H4z"/></symbol><symbol id="pos" viewBox="0 0 24 25"><path d="M9.92 4.21a1 1 0 0 0-1 1v5.25h6.035V5.21a1 1 0 0 0-1-1H9.92z"/><path fill-rule="evenodd" clip-rule="evenodd" d="M6.969 8.239H6.03a1 1 0 0 0-1 1v1.093c0 .044.003.087.008.129h-.476a1 1 0 0 0-1 1v6.719a1 1 0 0 0 1 1h14.75a1 1 0 0 0 1-1v-6.72a1 1 0 0 0-1-1h-.477c.005-.041.008-.084.008-.128V9.24a1 1 0 0 0-1-1h-.938v4.16H6.97v-4.16zm-1.383 6.71a.8.8 0 0 1 .8-.8h1.29a.8.8 0 0 1 .8.8v1.212a.8.8 0 0 1-.8.8h-1.29a.8.8 0 0 1-.8-.8v-1.213zm5.707-.8a.8.8 0 0 0-.8.8v1.212a.8.8 0 0 0 .8.8h1.289a.8.8 0 0 0 .8-.8v-1.213a.8.8 0 0 0-.8-.8h-1.29zm4.107.8a.8.8 0 0 1 .8-.8h1.289a.8.8 0 0 1 .8.8v1.212a.8.8 0 0 1-.8.8h-1.29a.8.8 0 0 1-.8-.8v-1.213z"/></symbol><symbol id="print" viewBox="0 0 24 25"><path fill-rule="evenodd" clip-rule="evenodd" d="M7.2 4.023h9.6v3.334H7.2V4.023zM6.4 8.19h11.2c1.328 0 2.4 1.117 2.4 2.5v5h-3.2v3.333H7.2V15.69H4v-5c0-1.383 1.072-2.5 2.4-2.5zm2.4 9.167h6.4V13.19H8.8v4.167zm8.8-5.834c-.44 0-.8-.375-.8-.833 0-.458.36-.833.8-.833.44 0 .8.375.8.833 0 .458-.36.833-.8.833z"/></symbol><symbol id="product" viewBox="0 0 25 25"><path d="M7.68 5.64a1.261 1.261 0 1 0 0 2.522 1.261 1.261 0 0 0 0-2.523zm0 1.68a.42.42 0 1 1 0-.84.42.42 0 0 1 0 .84zm6.308 7.147a.422.422 0 0 0 .298-.121l1.682-1.682a.42.42 0 0 0 .122-.298.42.42 0 0 0-.72-.299l-1.68 1.682a.42.42 0 0 0 .298.718zm8.287-1.98l-9.25-9.248a.42.42 0 0 0-.299-.122H5.158a1.261 1.261 0 0 0-1.261 1.26v7.568a.42.42 0 0 0 .122.299l9.25 9.248a.42.42 0 0 0 .597 0l8.409-8.408a.421.421 0 0 0 .09-.46.421.421 0 0 0-.09-.137zm-8.708 8.11l-8.83-8.829v-7.39a.42.42 0 0 1 .421-.42h7.396l8.83 8.828-7.817 7.81zm0-2.346a.421.421 0 0 0 .299-.122l2.522-2.522a.422.422 0 0 0 .052-.534.42.42 0 0 0-.649-.063l-2.522 2.522a.42.42 0 0 0 .298.72zm-1.98-2.4a.422.422 0 0 0 .597.597l.84-.841a.42.42 0 0 0 .123-.299.42.42 0 0 0-.72-.298l-.84.84z"/></symbol><symbol id="reports" viewBox="0 0 24 25"><path fill-rule="evenodd" clip-rule="evenodd" d="M10.222 10.69c.176 0 .346-.026.506-.075.552.284 1.054 1.082 1.54 2.363.485 1.276.998 2.226 1.554 2.802-.029.132-.044.269-.044.41 0 1.013.796 1.833 1.778 1.833.981 0 1.777-.82 1.777-1.833 0-.395-.12-.76-.327-1.06.534-.8 1.034-1.98 1.527-3.551.834-.152 1.467-.902 1.467-1.806 0-1.012-.796-1.833-1.778-1.833s-1.778.82-1.778 1.833c0 .63.308 1.186.777 1.516-.465 1.45-.92 2.488-1.332 3.1a1.73 1.73 0 0 0-1.282.25c-.316-.388-.688-1.085-1.097-2.163-.505-1.33-1.073-2.266-1.687-2.82.113-.241.177-.513.177-.8 0-1.012-.796-1.833-1.778-1.833s-1.778.821-1.778 1.834c0 .335.088.65.24.92-.872.713-1.78 1.945-2.702 3.675a1.746 1.746 0 0 0-.204-.012c-.982 0-1.778.82-1.778 1.833s.796 1.834 1.778 1.834 1.778-.821 1.778-1.834a1.86 1.86 0 0 0-.413-1.174c1.01-1.972 1.859-3.112 2.607-3.474.15.042.309.065.472.065z"/></symbol><symbol id="search" viewBox="0 0 24 25"><path fill-rule="evenodd" clip-rule="evenodd" d="M15.537 13.191s3.766 3.365 4.408 4.408c.392.637-1.417 2.381-2.12 2.122-1.194-.442-4.347-4.349-4.347-4.349a6.111 6.111 0 0 1-3.317.977A6.161 6.161 0 0 1 4 10.188a6.161 6.161 0 1 1 11.537 3.003zm-5.376-7.168A4.169 4.169 0 0 0 6 10.188a4.168 4.168 0 0 0 4.161 4.161 4.168 4.168 0 0 0 4.165-4.161 4.169 4.169 0 0 0-4.165-4.165z"/></symbol><symbol id="settings" viewBox="0 0 24 25"><path fill-rule="evenodd" clip-rule="evenodd" d="M20 12.736a1 1 0 0 1-.598.916l-.854.375c-.112.37-.254.723-.427 1.065l.516 1.317a1 1 0 0 1-.224 1.071l-1.02 1.021a1 1 0 0 1-1.071.225l-1.355-.529a6.879 6.879 0 0 1-.918.363l-.38.869a1 1 0 0 1-.916.598h-1.444a1 1 0 0 1-.917-.6l-.369-.845a6.888 6.888 0 0 1-1.004-.39l-1.425.556a1 1 0 0 1-1.072-.224l-1.02-1.02a1 1 0 0 1-.223-1.07l.557-1.427a7.154 7.154 0 0 1-.384-.98l-.854-.375A1 1 0 0 1 4 12.736v-1.445a1 1 0 0 1 .598-.915l.86-.377a6.88 6.88 0 0 1 .49-1.176L5.545 7.79a1 1 0 0 1 .225-1.071l1.021-1.02a1 1 0 0 1 1.07-.224l1.087.424c.342-.17.702-.315 1.076-.427l.369-.847a1 1 0 0 1 .917-.6h1.443a1 1 0 0 1 .916.598l.381.868a6.99 6.99 0 0 1 1.06.437l1.107-.432a1 1 0 0 1 1.07.225l1.02 1.02a1 1 0 0 1 .224 1.07L18.1 8.915c.174.348.325.709.442 1.085l.86.377a1 1 0 0 1 .598.915v1.445zm-4-.713a4 4 0 1 1-8 0 4 4 0 0 1 8 0z"/></symbol><symbol id="social-dribbble" viewBox="0 0 24 25"><path fill-rule="evenodd" clip-rule="evenodd" d="M12 20.023c-4.412 0-8-3.59-8-8s3.588-8 8-8c4.41 0 8 3.59 8 8s-3.59 8-8 8zm6.746-6.904c-.233-.075-2.115-.635-4.256-.292.893 2.455 1.257 4.456 1.326 4.872a6.847 6.847 0 0 0 2.93-4.58zm-5.535.023a28.52 28.52 0 0 1 1.458 5.182c-.82.35-1.724.543-2.669.542a6.802 6.802 0 0 1-4.195-1.442c.124-.252 1.507-2.924 5.36-4.267l.046-.015zm-6.288 3.461c.155-.265 2.03-3.37 5.555-4.509.088-.03.179-.056.269-.082a23.348 23.348 0 0 0-.554-1.16c-3.413 1.022-6.724.98-7.023.974l-.001.053a6.81 6.81 0 0 0 1.754 4.724zm4.705-6.801c-3.197.848-6.012.837-6.317.832A6.857 6.857 0 0 1 9.095 5.85a43.36 43.36 0 0 1 2.533 3.952zm-1.23-4.411c.189.252 1.43 1.943 2.55 4 2.43-.91 3.459-2.293 3.582-2.469a6.803 6.803 0 0 0-6.132-1.531zm3.075 5.016c2.526-1.032 3.672-2.5 3.816-2.694a6.8 6.8 0 0 1 1.543 4.256c-.226-.048-2.485-.507-4.759-.22a20.094 20.094 0 0 0-.147-.353 22.096 22.096 0 0 0-.453-.99z"/></symbol><symbol id="social-facebook" viewBox="0 0 24 25"><path d="M14.842 12.726l.367-2.844h-2.817V8.066c0-.823.231-1.384 1.411-1.384l1.505-.002V4.136a19.83 19.83 0 0 0-2.194-.113c-2.171 0-3.658 1.326-3.658 3.762V9.88H7v2.844h2.456v7.298h2.936v-7.297h2.45z"/></symbol><symbol id="social-github" viewBox="0 0 24 25"><path d="M12 4.023a8.002 8.002 0 0 0-2.528 15.592c.4.075.546-.173.546-.385 0-.189-.007-.693-.011-1.36-2.226.484-2.695-1.072-2.695-1.072-.365-.925-.889-1.17-.889-1.17-.727-.499.055-.488.055-.488.804.057 1.225.826 1.225.826.714 1.222 1.873.869 2.329.664.072-.518.28-.87.508-1.07-1.778-.201-3.645-.889-3.645-3.953 0-.873.312-1.588.823-2.147-.081-.202-.357-1.016.079-2.118 0 0 .672-.216 2.2.82A7.615 7.615 0 0 1 12 7.893c.68.004 1.364.092 2.004.27 1.526-1.036 2.197-.82 2.197-.82.437 1.102.163 1.915.08 2.118.512.56.822 1.273.822 2.147 0 3.072-1.871 3.749-3.654 3.947.289.247.544.735.544 1.481 0 1.07-.01 1.934-.01 2.195 0 .214.143.463.55.385A8.005 8.005 0 0 0 20 12.025a8 8 0 0 0-8-8.002z"/></symbol><symbol id="social-instagram" viewBox="0 0 24 25"><path fill-rule="evenodd" clip-rule="evenodd" d="M19.87 8.035c-.109-1.052-.511-1.984-1.295-2.73-.822-.786-1.83-1.133-2.934-1.191-1.879-.103-6.346-.168-7.913.088-1.791.291-2.965 1.338-3.461 3.108-.38 1.361-.307 7.635-.082 8.98.303 1.84 1.39 3.02 3.213 3.491 1.262.325 7.465.282 8.857.058 1.841-.299 3.027-1.38 3.505-3.2.366-1.396.237-7.342.11-8.604zm-1.474 7.995c-.213 1.398-1.14 2.262-2.544 2.418-1.291.141-7.057.219-8.252-.116-1.146-.32-1.802-1.107-1.991-2.261-.182-1.099-.227-6.602-.003-8.073.211-1.387 1.138-2.25 2.535-2.407 1.418-.159 6.518-.177 7.876.033 1.396.214 2.259 1.142 2.41 2.549.146 1.314.187 6.446-.03 7.857zM7.9 12.023A4.099 4.099 0 0 1 12 7.916a4.1 4.1 0 0 1 4.102 4.107 4.099 4.099 0 0 1-4.111 4.098A4.1 4.1 0 0 1 7.9 12.023zm4.073 2.649c-1.448-.003-2.624-1.197-2.624-2.663a2.647 2.647 0 0 1 2.663-2.643 2.65 2.65 0 0 1 2.644 2.662c-.002 1.472-1.194 2.646-2.683 2.644zm4.288-5.954c.533 0 .96-.423.96-.955a.954.954 0 0 0-.95-.964.953.953 0 0 0-.97.964.952.952 0 0 0 .96.955z"/></symbol><symbol id="social-linkedin" viewBox="0 0 24 25"><path fill-rule="evenodd" clip-rule="evenodd" d="M5.17 4.023H18.7c.646 0 1.174.513 1.173 1.145v13.583c0 .632-.527 1.146-1.175 1.146H5.171A1.16 1.16 0 0 1 4 18.751V5.168c0-.632.524-1.145 1.17-1.145zM15.174 17.55h2.352v-4.155c0-2.04-.439-3.608-2.823-3.608-1.145 0-1.913.628-2.229 1.223h-.031V9.974h-2.258v7.575h2.352v-3.747c0-.988.189-1.945 1.413-1.945 1.209 0 1.224 1.13 1.224 2.008v3.684zm-6.465 0H6.353V9.974h2.355v7.575zM6.166 7.574a1.364 1.364 0 1 0 2.728 0 1.365 1.365 0 0 0-2.729 0z"/></symbol><symbol id="social-pinterest" viewBox="0 0 24 25"><path d="M12 4.023a8 8 0 0 0-3.21 15.328c-.023-.56-.005-1.23.137-1.837l1.03-4.36s-.256-.51-.256-1.265c0-1.185.688-2.071 1.544-2.071.727 0 1.078.546 1.078 1.201 0 .73-.467 1.825-.706 2.838-.201.85.425 1.541 1.26 1.541 1.517 0 2.537-1.946 2.537-4.253 0-1.753-1.18-3.066-3.328-3.066-2.426 0-3.938 1.808-3.938 3.83 0 .698.205 1.19.528 1.57.148.174.168.246.114.446-.037.147-.125.5-.163.642-.053.203-.217.275-.4.2-1.118-.456-1.639-1.681-1.639-3.056 0-2.272 1.916-4.998 5.718-4.998 3.053 0 5.065 2.21 5.065 4.584 0 3.137-1.745 5.481-4.318 5.481-.864 0-1.677-.466-1.954-.995 0 0-.466 1.842-.562 2.198-.17.617-.502 1.233-.806 1.713A8 8 0 0 0 20 12.024a8 8 0 0 0-8-8z"/></symbol><symbol id="social-twitter" viewBox="0 0 24 25"><path d="M20 6.562a6.569 6.569 0 0 1-1.885.517 3.29 3.29 0 0 0 1.443-1.816 6.542 6.542 0 0 1-2.084.798 3.283 3.283 0 0 0-5.596 2.993 9.317 9.317 0 0 1-6.765-3.43 3.272 3.272 0 0 0-.444 1.651c0 1.138.58 2.144 1.46 2.732a3.266 3.266 0 0 1-1.487-.41v.041a3.285 3.285 0 0 0 2.633 3.22 3.29 3.29 0 0 1-1.482.056 3.286 3.286 0 0 0 3.066 2.28A6.585 6.585 0 0 1 4 16.554a9.3 9.3 0 0 0 5.033 1.474c6.037 0 9.339-5.002 9.339-9.34 0-.142-.003-.283-.01-.425A6.726 6.726 0 0 0 20 6.563z"/></symbol><symbol id="social-vimeo" viewBox="0 0 24 25"><path d="M19.992 8.218c-.139 2.998-5.614 10.614-8.785 10.614-.933 0-1.722-.86-2.367-2.582-1.235-4.526-1.783-7.315-2.833-7.315-.119 0-.537.252-1.256.753L4 8.72c2.001-1.76 3.623-3.416 4.696-3.514 1.244-.12 2.009.729 2.294 2.546.37 2.33.902 6.096 1.83 6.096.718 0 2.49-2.919 2.584-3.98.158-1.51-1.083-1.597-2.261-1.111.79-2.559 2.295-3.803 4.52-3.73 1.648.047 2.424 1.112 2.33 3.19"/></symbol><symbol id="social-whatsapp" viewBox="0 0 24 25"><path fill-rule="evenodd" clip-rule="evenodd" d="M4 20.11l.018-.072c.082-.32.154-.6.23-.88l.202-.734.009-.03.002-.008c.195-.709.39-1.417.575-2.129a.713.713 0 0 0-.046-.465c-2.455-4.678.076-10.34 5.228-11.55 4.675-1.095 8.88 2.062 9.649 6.284.8 4.402-2.082 8.585-6.45 9.35-1.737.3-3.397.046-4.982-.725a.768.768 0 0 0-.491-.051c-1.055.263-1.934.494-2.602.67l-.02.005-.008.002c-.655.172-1.103.29-1.314.332zm1.859-1.833l.609-.158a85.347 85.347 0 0 0 1.642-.436.664.664 0 0 1 .546.075c1.373.795 2.843 1.09 4.416.837 3.62-.58 6.101-3.968 5.548-7.576-.576-3.74-4.08-6.25-7.786-5.57-4.48.824-6.86 5.82-4.63 9.776.245.439.314.801.146 1.268-.136.389-.238.79-.344 1.213v.002c-.047.185-.095.375-.147.569zm2.507-6.686c1.7 2.952 4.18 4.181 5.738 4.237.754.056 2-.433 1.946-1.792-.007-.157-.1-.201-1.151-.702a264.29 264.29 0 0 1-.594-.283c-.269-.127-.364-.006-.719.446-.088.112-.191.244-.318.398-.111.138-.244.183-.42.114-1.202-.47-2.116-1.271-2.768-2.378-.1-.17-.075-.306.052-.452.406-.465.597-.725.492-1.005a29.66 29.66 0 0 0-.646-1.559c-.043-.095-.133-.229-.22-.24l-.017-.004c-.346-.059-.713-.121-1.007.153-.884.822-.972 2.018-.368 3.067z"/></symbol><symbol id="social-youtube" viewBox="0 0 24 25"><path fill-rule="evenodd" clip-rule="evenodd" d="M5.648 16.909c-.606-.198-1.012-.594-1.23-1.193-.532-1.463-.689-7.58.334-8.785a1.99 1.99 0 0 1 1.339-.71c2.758-.297 11.285-.255 12.268.1.576.206.984.583 1.206 1.16.582 1.51.602 7.012-.076 8.467-.186.395-.485.675-.866.874-1.028.54-11.622.533-12.975.087zm4.383-2.868A6039.45 6039.45 0 0 1 15 11.465c-1.67-.87-3.314-1.73-4.97-2.593v5.17z"/></symbol><symbol id="stock" viewBox="0 0 24 25"><path fill-rule="evenodd" clip-rule="evenodd" d="M5 4.023a1 1 0 0 0-1 1v2a1 1 0 0 0 1 1h2a1 1 0 0 0 1-1v-2a1 1 0 0 0-1-1H5zm0 6a1 1 0 0 0-1 1v2a1 1 0 0 0 1 1h2a1 1 0 0 0 1-1v-2a1 1 0 0 0-1-1H5zm5 1a1 1 0 0 1 1-1h2a1 1 0 0 1 1 1v2a1 1 0 0 1-1 1h-2a1 1 0 0 1-1-1v-2zm-5 5a1 1 0 0 0-1 1v2a1 1 0 0 0 1 1h2a1 1 0 0 0 1-1v-2a1 1 0 0 0-1-1H5zm5 1a1 1 0 0 1 1-1h2a1 1 0 0 1 1 1v2a1 1 0 0 1-1 1h-2a1 1 0 0 1-1-1v-2zm7-1a1 1 0 0 0-1 1v2a1 1 0 0 0 1 1h2a1 1 0 0 0 1-1v-2a1 1 0 0 0-1-1h-2z"/></symbol><symbol id="success-outline" viewBox="0 0 24 25"><path fill-rule="evenodd" clip-rule="evenodd" d="M19.357 8.957a.362.362 0 1 0-.595.378l-.008.003c.331.832.519 1.735.519 2.685A7.273 7.273 0 1 1 12 4.751c2.056 0 3.91.855 5.23 2.227l.005-.005a.363.363 0 0 0 .497-.527c-.014-.013-.031-.02-.046-.03A7.946 7.946 0 0 0 12 4.023a8 8 0 1 0 8 8 7.96 7.96 0 0 0-.555-2.911.36.36 0 0 0-.088-.155zm-7.363 5.091L8.62 10.675a.363.363 0 0 0-.621.257c0 .1.04.192.107.258l3.636 3.636a.364.364 0 0 0 .519-.007l6.073-6.36.52-.543L19.9 6.82a.364.364 0 0 0-.525-.501l-.935.978-.51.529-5.935 6.223z"/></symbol><symbol id="success" viewBox="0 0 24 25"><path fill-rule="evenodd" clip-rule="evenodd" d="M20 12.023a8 8 0 1 1-16 0 8 8 0 0 1 16 0zm-4.945-3.345l-3.861 5.147-2.316-2.316-1.029 1.029 3.502 3.502 4.867-6.49-1.163-.872z"/></symbol><symbol id="sync" viewBox="0 0 24 25"><path fill-rule="evenodd" clip-rule="evenodd" d="M19.07 14.797c.21-.54-.146-1.11-.71-1.244-.564-.133-1.12.222-1.357.751a5.588 5.588 0 1 1-.978-6.051c.083.09.176.168.277.233l-2.05 1.734 5.535 1.019-.089-5.627-1.838 1.556a7.687 7.687 0 1 0 1.21 7.63z"/></symbol><symbol id="ticket" viewBox="0 0 25 25"><path d="M7.68 5.64a1.261 1.261 0 1 0 0 2.522 1.261 1.261 0 0 0 0-2.523zm0 1.68a.42.42 0 1 1 0-.84.42.42 0 0 1 0 .84zm6.308 7.147a.422.422 0 0 0 .298-.121l1.682-1.682a.42.42 0 0 0 .122-.298.42.42 0 0 0-.72-.299l-1.68 1.682a.42.42 0 0 0 .298.718zm8.287-1.98l-9.25-9.248a.42.42 0 0 0-.299-.122H5.158a1.261 1.261 0 0 0-1.261 1.26v7.568a.42.42 0 0 0 .122.299l9.25 9.248a.42.42 0 0 0 .597 0l8.409-8.408a.421.421 0 0 0 .09-.46.421.421 0 0 0-.09-.137zm-8.708 8.11l-8.83-8.829v-7.39a.42.42 0 0 1 .421-.42h7.396l8.83 8.828-7.817 7.81zm0-2.346a.421.421 0 0 0 .299-.122l2.522-2.522a.422.422 0 0 0 .052-.534.42.42 0 0 0-.649-.063l-2.522 2.522a.42.42 0 0 0 .298.72zm-1.98-2.4a.422.422 0 0 0 .597.597l.84-.841a.42.42 0 0 0 .123-.299.42.42 0 0 0-.72-.298l-.84.84z"/></symbol><symbol id="user" viewBox="0 0 24 25"><path fill-rule="evenodd" clip-rule="evenodd" d="M4 11.862c0-4.305 3.581-7.795 8-7.795 4.418 0 8 3.49 8 7.795s-3.582 7.795-8 7.795c-4.419 0-8-3.49-8-7.795zm8.215-1.945c.646 0 1.169-.51 1.169-1.138 0-.629-.524-1.139-1.169-1.139s-1.168.51-1.168 1.139c0 .628.523 1.138 1.168 1.138zm0 2.602c-1.652 0-3.393.79-3.393 1.138v.595h6.786v-.595c0-.347-1.74-1.138-3.393-1.138zm0-5.909c1.23 0 2.226.97 2.226 2.169 0 1.198-.996 2.168-2.226 2.168-1.229 0-2.225-.97-2.225-2.168 0-1.198.996-2.169 2.225-2.169zm-4.45 8.673h8.9v-1.626c0-1.442-2.966-2.169-4.45-2.169-1.485 0-4.45.727-4.45 2.169v1.626z"/></symbol><symbol id="view-eye" viewBox="0 0 24 25"><path d="M12 4.524c-5 0-9.27 3.11-11 7.5 1.73 4.39 6 7.5 11 7.5s9.27-3.11 11-7.5c-1.73-4.39-6-7.5-11-7.5zm0 12.5c-2.76 0-5-2.24-5-5s2.24-5 5-5 5 2.24 5 5-2.24 5-5 5zm0-8c-1.66 0-3 1.34-3 3s1.34 3 3 3 3-1.34 3-3-1.34-3-3-3z"/></symbol><symbol id="view-grid" viewBox="0 0 24 25"><path fill-rule="evenodd" clip-rule="evenodd" d="M11 2.91H3v8h8v-8zm0 10.004H3v8h8v-8zm2 0h8v8h-8v-8zM21 2.91h-8v8h8v-8z"/></symbol><symbol id="view-list" viewBox="0 0 24 25"><path fill-rule="evenodd" clip-rule="evenodd" d="M6.375 3.808h-3V6.94h3V3.808zm14.5 0H8.125V6.94h12.75V3.808zm0 6.572H8.125v3.133h12.75V10.38zm-12.75 6.572h12.75v3.134H8.125v-3.133zm-4.75-6.572h3v3.133h-3V10.38zm3 6.572h-3v3.134h3v-3.133z"/></symbol><symbol id="priceTag" viewBox="0 0 595.279 841.891" xmlns="http://www.w3.org/2000/svg">
 <path d="M31.288 131.133c-8.554 3.077-14.823 7.643-18.704 13.685-7.072 11.174-6.84 5.703-6.5 132.623l.345 115.633 3.19 6.84c2.852 6.155 17.562 21.21 152.809 156.457C330.058 724.115 317.177 712.37 334.28 712.37c16.876 0 8.322 7.524 135.36-119.508C596.679 465.83 589.149 474.384 589.149 457.507c0-17.109 11.745-4.22-156-171.851-135.247-135.248-150.301-149.957-156.456-152.809l-6.84-3.19-116.319-.227c-109.471-.232-116.657-.119-122.246 1.703zm376.544 180.406L553.795 457.5 443.984 567.205 334.28 677.022 188.31 531.06 42.349 385.097V165.576h219.521l145.963 145.963z"/>
 <path d="M158.78 239.813c-14.943 2.965-30.336 14.823-37.29 28.966-22.918 46.414 25.085 95.674 71.958 73.666 21.323-9.923 34.098-33.984 30.562-57.129-4.792-30.907-34.324-51.55-65.23-45.503zm18.47 36.83c11.745 4.905 14.597 20.186 5.477 29.306-7.411 7.41-17.906 7.41-25.317 0-14.138-14.025 1.482-37.056 19.84-29.306zM316.196 396.169c-1.878.946-26.11 24.527-53.63 52.375-54.215 54.626-52.92 53.087-51.041 63.75 1.056 5.567 8.582 13.151 14.113 14.22 10.584 1.894 9.055 3.2 63.27-51.427 27.87-27.965 51.157-52.375 52.213-54.509 6.943-14.933-10.222-31.757-24.925-24.41z"/>
 <path d="M356.196 357.34c-1.878.947-26.11 24.528-53.63 52.376-54.215 54.626-52.92 53.087-51.041 63.75 1.056 5.567 8.582 13.151 14.113 14.22 10.584 1.894 9.055 3.2 63.27-51.427 27.87-27.965 51.157-52.375 52.213-54.509 6.943-14.933-10.222-31.757-24.925-24.41zM363.85 456.612c-1.823.91-25.318 23.603-52.117 50.403-52.57 52.795-51.319 51.318-49.492 61.58 1.024 5.358 8.329 12.657 13.686 13.686 10.263 1.823 8.78 3.078 61.35-49.491 27.025-26.913 49.604-50.402 50.627-52.456 6.74-14.257-9.459-30.223-24.054-23.722z"/>
 </symbol></svg>
